<svg xmlns="http://www.w3.org/2000/svg" xmlns:xlink="http://www.w3.org/1999/xlink" contentStyleType="text/css" data-diagram-type="YAML" height="674px" preserveAspectRatio="none" style="width:1608px;height:674px;background:#FFFFFF;" version="1.1" viewBox="0 0 1608 674" width="1608px" zoomAndPan="magnify"><defs/><g><rect fill="#F1F1F1" height="40.5938" rx="5" ry="5" style="stroke:#F1F1F1;stroke-width:1.5;" width="23.3506" x="10" y="354"/><text fill="#000000" font-family="sans-serif" font-size="14" lengthAdjust="spacing" textLength="13.3506" x="15" y="368.9951">&#160;&#160;&#160;</text><line style="stroke:#000000;stroke-width:1;" x1="10" x2="33.3506" y1="374.2969" y2="374.2969"/><text fill="#000000" font-family="sans-serif" font-size="14" lengthAdjust="spacing" textLength="13.3506" x="15" y="389.292">&#160;&#160;&#160;</text><rect fill="none" height="40.5938" rx="5" ry="5" style="stroke:#000000;stroke-width:1.5;" width="23.3506" x="10" y="354"/><rect fill="#F1F1F1" height="142.0781" rx="5" ry="5" style="stroke:#F1F1F1;stroke-width:1.5;" width="273.0938" x="78.5" y="165.4609"/><text fill="#000000" font-family="sans-serif" font-size="14" font-weight="bold" lengthAdjust="spacing" textLength="43.4971" x="83.5" y="180.4561">name</text><text fill="#000000" font-family="sans-serif" font-size="14" lengthAdjust="spacing" textLength="184.1602" x="162.4336" y="180.4561">Setup NGINX Web Servers</text><line style="stroke:#000000;stroke-width:1;" x1="157.4336" x2="157.4336" y1="165.4609" y2="185.7578"/><line style="stroke:#000000;stroke-width:1;" x1="78.5" x2="351.5938" y1="185.7578" y2="185.7578"/><text fill="#000000" font-family="sans-serif" font-size="14" font-weight="bold" lengthAdjust="spacing" textLength="42.9434" x="83.5" y="200.7529">hosts</text><text fill="#000000" font-family="sans-serif" font-size="14" lengthAdjust="spacing" textLength="28.9502" x="162.4336" y="200.7529">web</text><line style="stroke:#000000;stroke-width:1;" x1="157.4336" x2="157.4336" y1="185.7578" y2="206.0547"/><line style="stroke:#000000;stroke-width:1;" x1="78.5" x2="351.5938" y1="206.0547" y2="206.0547"/><text fill="#000000" font-family="sans-serif" font-size="14" font-weight="bold" lengthAdjust="spacing" textLength="61.5166" x="83.5" y="221.0498">become</text><text fill="#000000" font-family="sans-serif" font-size="14" lengthAdjust="spacing" textLength="24.1924" x="162.4336" y="221.0498">yes</text><line style="stroke:#000000;stroke-width:1;" x1="157.4336" x2="157.4336" y1="206.0547" y2="226.3516"/><line style="stroke:#000000;stroke-width:1;" x1="78.5" x2="351.5938" y1="226.3516" y2="226.3516"/><text fill="#000000" font-family="sans-serif" font-size="14" font-weight="bold" lengthAdjust="spacing" textLength="39.1494" x="83.5" y="241.3467">roles</text><text fill="#000000" font-family="sans-serif" font-size="14" lengthAdjust="spacing" textLength="13.3506" x="162.4336" y="241.3467">&#160;&#160;&#160;</text><line style="stroke:#000000;stroke-width:1;" x1="157.4336" x2="157.4336" y1="226.3516" y2="246.6484"/><line style="stroke:#000000;stroke-width:1;" x1="78.5" x2="351.5938" y1="246.6484" y2="246.6484"/><text fill="#000000" font-family="sans-serif" font-size="14" font-weight="bold" lengthAdjust="spacing" textLength="33.8105" x="83.5" y="261.6436">vars</text><text fill="#000000" font-family="sans-serif" font-size="14" lengthAdjust="spacing" textLength="13.3506" x="162.4336" y="261.6436">&#160;&#160;&#160;</text><line style="stroke:#000000;stroke-width:1;" x1="157.4336" x2="157.4336" y1="246.6484" y2="266.9453"/><line style="stroke:#000000;stroke-width:1;" x1="78.5" x2="351.5938" y1="266.9453" y2="266.9453"/><text fill="#000000" font-family="sans-serif" font-size="14" font-weight="bold" lengthAdjust="spacing" textLength="42.1162" x="83.5" y="281.9404">tasks</text><text fill="#000000" font-family="sans-serif" font-size="14" lengthAdjust="spacing" textLength="13.3506" x="162.4336" y="281.9404">&#160;&#160;&#160;</text><line style="stroke:#000000;stroke-width:1;" x1="157.4336" x2="157.4336" y1="266.9453" y2="287.2422"/><line style="stroke:#000000;stroke-width:1;" x1="78.5" x2="351.5938" y1="287.2422" y2="287.2422"/><text fill="#000000" font-family="sans-serif" font-size="14" font-weight="bold" lengthAdjust="spacing" textLength="68.9336" x="83.5" y="302.2373">handlers</text><text fill="#000000" font-family="sans-serif" font-size="14" lengthAdjust="spacing" textLength="13.3506" x="162.4336" y="302.2373">&#160;&#160;&#160;</text><line style="stroke:#000000;stroke-width:1;" x1="157.4336" x2="157.4336" y1="287.2422" y2="307.5391"/><rect fill="none" height="142.0781" rx="5" ry="5" style="stroke:#000000;stroke-width:1.5;" width="273.0938" x="78.5" y="165.4609"/><rect fill="#F1F1F1" height="20.2969" rx="5" ry="5" style="stroke:#F1F1F1;stroke-width:1.5;" width="23.3506" x="505" y="84.3516"/><text fill="#000000" font-family="sans-serif" font-size="14" lengthAdjust="spacing" textLength="13.3506" x="510" y="99.3467">&#160;&#160;&#160;</text><rect fill="none" height="20.2969" rx="5" ry="5" style="stroke:#000000;stroke-width:1.5;" width="23.3506" x="505" y="84.3516"/><rect fill="#F1F1F1" height="20.2969" rx="5" ry="5" style="stroke:#F1F1F1;stroke-width:1.5;" width="177.5273" x="840.5" y="62.3516"/><text fill="#000000" font-family="sans-serif" font-size="14" font-weight="bold" lengthAdjust="spacing" textLength="30.8164" x="845.5" y="77.3467">role</text><text fill="#000000" font-family="sans-serif" font-size="14" lengthAdjust="spacing" textLength="126.7109" x="886.3164" y="77.3467">geerlingguy.nginx</text><line style="stroke:#000000;stroke-width:1;" x1="881.3164" x2="881.3164" y1="62.3516" y2="82.6484"/><rect fill="none" height="20.2969" rx="5" ry="5" style="stroke:#000000;stroke-width:1.5;" width="177.5273" x="840.5" y="62.3516"/><rect fill="#F1F1F1" height="20.2969" rx="5" ry="5" style="stroke:#F1F1F1;stroke-width:1.5;" width="136.2041" x="448.5" y="166.3516"/><text fill="#000000" font-family="sans-serif" font-size="14" font-weight="bold" lengthAdjust="spacing" textLength="102.8535" x="453.5" y="181.3467">nginx_vhosts</text><text fill="#000000" font-family="sans-serif" font-size="14" lengthAdjust="spacing" textLength="13.3506" x="566.3535" y="181.3467">&#160;&#160;&#160;</text><line style="stroke:#000000;stroke-width:1;" x1="561.3535" x2="561.3535" y1="166.3516" y2="186.6484"/><rect fill="none" height="20.2969" rx="5" ry="5" style="stroke:#000000;stroke-width:1.5;" width="136.2041" x="448.5" y="166.3516"/><rect fill="#F1F1F1" height="20.2969" rx="5" ry="5" style="stroke:#F1F1F1;stroke-width:1.5;" width="23.3506" x="918" y="100.3516"/><text fill="#000000" font-family="sans-serif" font-size="14" lengthAdjust="spacing" textLength="13.3506" x="923" y="115.3467">&#160;&#160;&#160;</text><rect fill="none" height="20.2969" rx="5" ry="5" style="stroke:#000000;stroke-width:1.5;" width="23.3506" x="918" y="100.3516"/><rect fill="#F1F1F1" height="60.8906" rx="5" ry="5" style="stroke:#F1F1F1;stroke-width:1.5;" width="258.5742" x="1280.5" y="10"/><text fill="#000000" font-family="sans-serif" font-size="14" font-weight="bold" lengthAdjust="spacing" textLength="44.085" x="1285.5" y="24.9951">listen</text><text fill="#000000" font-family="sans-serif" font-size="14" lengthAdjust="spacing" textLength="17.8145" x="1396.2549" y="24.9951">80</text><line style="stroke:#000000;stroke-width:1;" x1="1391.2549" x2="1391.2549" y1="10" y2="30.2969"/><line style="stroke:#000000;stroke-width:1;" x1="1280.5" x2="1539.0742" y1="30.2969" y2="30.2969"/><text fill="#000000" font-family="sans-serif" font-size="14" font-weight="bold" lengthAdjust="spacing" textLength="100.7549" x="1285.5" y="45.292">server_name</text><text fill="#000000" font-family="sans-serif" font-size="14" lengthAdjust="spacing" textLength="7" x="1396.2549" y="45.292">_</text><line style="stroke:#000000;stroke-width:1;" x1="1391.2549" x2="1391.2549" y1="30.2969" y2="50.5938"/><line style="stroke:#000000;stroke-width:1;" x1="1280.5" x2="1539.0742" y1="50.5938" y2="50.5938"/><text fill="#000000" font-family="sans-serif" font-size="14" font-weight="bold" lengthAdjust="spacing" textLength="32.833" x="1285.5" y="65.5889">root</text><text fill="#000000" font-family="sans-serif" font-size="14" lengthAdjust="spacing" textLength="137.8193" x="1396.2549" y="65.5889">/var/www/2048/app</text><line style="stroke:#000000;stroke-width:1;" x1="1391.2549" x2="1391.2549" y1="50.5938" y2="70.8906"/><rect fill="none" height="60.8906" rx="5" ry="5" style="stroke:#000000;stroke-width:1.5;" width="258.5742" x="1280.5" y="10"/><rect fill="#F1F1F1" height="101.4844" rx="5" ry="5" style="stroke:#F1F1F1;stroke-width:1.5;" width="23.3506" x="505" y="226.7578"/><text fill="#000000" font-family="sans-serif" font-size="14" lengthAdjust="spacing" textLength="13.3506" x="510" y="241.7529">&#160;&#160;&#160;</text><line style="stroke:#000000;stroke-width:1;" x1="505" x2="528.3506" y1="247.0547" y2="247.0547"/><text fill="#000000" font-family="sans-serif" font-size="14" lengthAdjust="spacing" textLength="13.3506" x="510" y="262.0498">&#160;&#160;&#160;</text><line style="stroke:#000000;stroke-width:1;" x1="505" x2="528.3506" y1="267.3516" y2="267.3516"/><text fill="#000000" font-family="sans-serif" font-size="14" lengthAdjust="spacing" textLength="13.3506" x="510" y="282.3467">&#160;&#160;&#160;</text><line style="stroke:#000000;stroke-width:1;" x1="505" x2="528.3506" y1="287.6484" y2="287.6484"/><text fill="#000000" font-family="sans-serif" font-size="14" lengthAdjust="spacing" textLength="13.3506" x="510" y="302.6436">&#160;&#160;&#160;</text><line style="stroke:#000000;stroke-width:1;" x1="505" x2="528.3506" y1="307.9453" y2="307.9453"/><text fill="#000000" font-family="sans-serif" font-size="14" lengthAdjust="spacing" textLength="13.3506" x="510" y="322.9404">&#160;&#160;&#160;</text><rect fill="none" height="101.4844" rx="5" ry="5" style="stroke:#000000;stroke-width:1.5;" width="23.3506" x="505" y="226.7578"/><rect fill="#F1F1F1" height="40.5938" rx="5" ry="5" style="stroke:#F1F1F1;stroke-width:1.5;" width="130.3184" x="864.5" y="139"/><text fill="#000000" font-family="sans-serif" font-size="14" font-weight="bold" lengthAdjust="spacing" textLength="43.4971" x="869.5" y="153.9951">name</text><text fill="#000000" font-family="sans-serif" font-size="14" lengthAdjust="spacing" textLength="66.8213" x="922.9971" y="153.9951">Install Git</text><line style="stroke:#000000;stroke-width:1;" x1="917.9971" x2="917.9971" y1="139" y2="159.2969"/><line style="stroke:#000000;stroke-width:1;" x1="864.5" x2="994.8184" y1="159.2969" y2="159.2969"/><text fill="#000000" font-family="sans-serif" font-size="14" font-weight="bold" lengthAdjust="spacing" textLength="26.1611" x="869.5" y="174.292">apt</text><text fill="#000000" font-family="sans-serif" font-size="14" lengthAdjust="spacing" textLength="13.3506" x="922.9971" y="174.292">&#160;&#160;&#160;</text><line style="stroke:#000000;stroke-width:1;" x1="917.9971" x2="917.9971" y1="159.2969" y2="179.5938"/><rect fill="none" height="40.5938" rx="5" ry="5" style="stroke:#000000;stroke-width:1.5;" width="130.3184" x="864.5" y="139"/><rect fill="#F1F1F1" height="40.5938" rx="5" ry="5" style="stroke:#F1F1F1;stroke-width:1.5;" width="117.0225" x="1351.5" y="89"/><text fill="#000000" font-family="sans-serif" font-size="14" font-weight="bold" lengthAdjust="spacing" textLength="43.4971" x="1356.5" y="103.9951">name</text><text fill="#000000" font-family="sans-serif" font-size="14" lengthAdjust="spacing" textLength="18.2656" x="1409.9971" y="103.9951">git</text><line style="stroke:#000000;stroke-width:1;" x1="1404.9971" x2="1404.9971" y1="89" y2="109.2969"/><line style="stroke:#000000;stroke-width:1;" x1="1351.5" x2="1468.5225" y1="109.2969" y2="109.2969"/><text fill="#000000" font-family="sans-serif" font-size="14" font-weight="bold" lengthAdjust="spacing" textLength="40.6602" x="1356.5" y="124.292">state</text><text fill="#000000" font-family="sans-serif" font-size="14" lengthAdjust="spacing" textLength="53.5254" x="1409.9971" y="124.292">present</text><line style="stroke:#000000;stroke-width:1;" x1="1404.9971" x2="1404.9971" y1="109.2969" y2="129.5938"/><rect fill="none" height="40.5938" rx="5" ry="5" style="stroke:#000000;stroke-width:1.5;" width="117.0225" x="1351.5" y="89"/><rect fill="#F1F1F1" height="40.5938" rx="5" ry="5" style="stroke:#F1F1F1;stroke-width:1.5;" width="290.4365" x="784.5" y="198"/><text fill="#000000" font-family="sans-serif" font-size="14" font-weight="bold" lengthAdjust="spacing" textLength="43.4971" x="789.5" y="212.9951">name</text><text fill="#000000" font-family="sans-serif" font-size="14" lengthAdjust="spacing" textLength="226.9395" x="842.9971" y="212.9951">Clone the 2048 game repository</text><line style="stroke:#000000;stroke-width:1;" x1="837.9971" x2="837.9971" y1="198" y2="218.2969"/><line style="stroke:#000000;stroke-width:1;" x1="784.5" x2="1074.9365" y1="218.2969" y2="218.2969"/><text fill="#000000" font-family="sans-serif" font-size="14" font-weight="bold" lengthAdjust="spacing" textLength="21.5127" x="789.5" y="233.292">git</text><text fill="#000000" font-family="sans-serif" font-size="14" lengthAdjust="spacing" textLength="13.3506" x="842.9971" y="233.292">&#160;&#160;&#160;</text><line style="stroke:#000000;stroke-width:1;" x1="837.9971" x2="837.9971" y1="218.2969" y2="238.5938"/><rect fill="none" height="40.5938" rx="5" ry="5" style="stroke:#000000;stroke-width:1.5;" width="290.4365" x="784.5" y="198"/><rect fill="#F1F1F1" height="81.1875" rx="5" ry="5" style="stroke:#F1F1F1;stroke-width:1.5;" width="350.3193" x="1235" y="147.9063"/><text fill="#000000" font-family="sans-serif" font-size="14" font-weight="bold" lengthAdjust="spacing" textLength="36.0391" x="1240" y="162.9014">repo</text><text fill="#000000" font-family="sans-serif" font-size="14" lengthAdjust="spacing" textLength="272.0771" x="1308.2422" y="162.9014">https://github.com/ttwthomas/2048.git</text><line style="stroke:#000000;stroke-width:1;" x1="1303.2422" x2="1303.2422" y1="147.9063" y2="168.2031"/><line style="stroke:#000000;stroke-width:1;" x1="1235" x2="1585.3193" y1="168.2031" y2="168.2031"/><text fill="#000000" font-family="sans-serif" font-size="14" font-weight="bold" lengthAdjust="spacing" textLength="34.542" x="1240" y="183.1982">dest</text><text fill="#000000" font-family="sans-serif" font-size="14" lengthAdjust="spacing" textLength="106.75" x="1308.2422" y="183.1982">/var/www/2048</text><line style="stroke:#000000;stroke-width:1;" x1="1303.2422" x2="1303.2422" y1="168.2031" y2="188.5"/><line style="stroke:#000000;stroke-width:1;" x1="1235" x2="1585.3193" y1="188.5" y2="188.5"/><text fill="#000000" font-family="sans-serif" font-size="14" font-weight="bold" lengthAdjust="spacing" textLength="58.2422" x="1240" y="203.4951">version</text><text fill="#000000" font-family="sans-serif" font-size="14" lengthAdjust="spacing" textLength="39.7305" x="1308.2422" y="203.4951">HEAD</text><line style="stroke:#000000;stroke-width:1;" x1="1303.2422" x2="1303.2422" y1="188.5" y2="208.7969"/><line style="stroke:#000000;stroke-width:1;" x1="1235" x2="1585.3193" y1="208.7969" y2="208.7969"/><text fill="#000000" font-family="sans-serif" font-size="14" font-weight="bold" lengthAdjust="spacing" textLength="40.4072" x="1240" y="223.792">force</text><text fill="#000000" font-family="sans-serif" font-size="14" lengthAdjust="spacing" textLength="24.1924" x="1308.2422" y="223.792">yes</text><line style="stroke:#000000;stroke-width:1;" x1="1303.2422" x2="1303.2422" y1="208.7969" y2="229.0938"/><rect fill="none" height="81.1875" rx="5" ry="5" style="stroke:#000000;stroke-width:1.5;" width="350.3193" x="1235" y="147.9063"/><rect fill="#F1F1F1" height="40.5938" rx="5" ry="5" style="stroke:#F1F1F1;stroke-width:1.5;" width="418.3096" x="720.5" y="257"/><text fill="#000000" font-family="sans-serif" font-size="14" font-weight="bold" lengthAdjust="spacing" textLength="43.4971" x="725.5" y="271.9951">name</text><text fill="#000000" font-family="sans-serif" font-size="14" lengthAdjust="spacing" textLength="354.8125" x="778.9971" y="271.9951">Ensure the 2048 directory has correct permissions</text><line style="stroke:#000000;stroke-width:1;" x1="773.9971" x2="773.9971" y1="257" y2="277.2969"/><line style="stroke:#000000;stroke-width:1;" x1="720.5" x2="1138.8096" y1="277.2969" y2="277.2969"/><text fill="#000000" font-family="sans-serif" font-size="14" font-weight="bold" lengthAdjust="spacing" textLength="25.1836" x="725.5" y="292.292">file</text><text fill="#000000" font-family="sans-serif" font-size="14" lengthAdjust="spacing" textLength="13.3506" x="778.9971" y="292.292">&#160;&#160;&#160;</text><line style="stroke:#000000;stroke-width:1;" x1="773.9971" x2="773.9971" y1="277.2969" y2="297.5938"/><rect fill="none" height="40.5938" rx="5" ry="5" style="stroke:#000000;stroke-width:1.5;" width="418.3096" x="720.5" y="257"/><rect fill="#F1F1F1" height="81.1875" rx="5" ry="5" style="stroke:#F1F1F1;stroke-width:1.5;" width="186.1475" x="1317" y="246.9063"/><text fill="#000000" font-family="sans-serif" font-size="14" font-weight="bold" lengthAdjust="spacing" textLength="36.1279" x="1322" y="261.9014">path</text><text fill="#000000" font-family="sans-serif" font-size="14" lengthAdjust="spacing" textLength="106.75" x="1391.3975" y="261.9014">/var/www/2048</text><line style="stroke:#000000;stroke-width:1;" x1="1386.3975" x2="1386.3975" y1="246.9063" y2="267.2031"/><line style="stroke:#000000;stroke-width:1;" x1="1317" x2="1503.1475" y1="267.2031" y2="267.2031"/><text fill="#000000" font-family="sans-serif" font-size="14" font-weight="bold" lengthAdjust="spacing" textLength="43.7227" x="1322" y="282.1982">mode</text><text fill="#000000" font-family="sans-serif" font-size="14" lengthAdjust="spacing" textLength="35.6289" x="1391.3975" y="282.1982">0755</text><line style="stroke:#000000;stroke-width:1;" x1="1386.3975" x2="1386.3975" y1="267.2031" y2="287.5"/><line style="stroke:#000000;stroke-width:1;" x1="1317" x2="1503.1475" y1="287.5" y2="287.5"/><text fill="#000000" font-family="sans-serif" font-size="14" font-weight="bold" lengthAdjust="spacing" textLength="40.6602" x="1322" y="302.4951">state</text><text fill="#000000" font-family="sans-serif" font-size="14" lengthAdjust="spacing" textLength="62.9385" x="1391.3975" y="302.4951">directory</text><line style="stroke:#000000;stroke-width:1;" x1="1386.3975" x2="1386.3975" y1="287.5" y2="307.7969"/><line style="stroke:#000000;stroke-width:1;" x1="1317" x2="1503.1475" y1="307.7969" y2="307.7969"/><text fill="#000000" font-family="sans-serif" font-size="14" font-weight="bold" lengthAdjust="spacing" textLength="59.3975" x="1322" y="322.792">recurse</text><text fill="#000000" font-family="sans-serif" font-size="14" lengthAdjust="spacing" textLength="28.7314" x="1391.3975" y="322.792">true</text><line style="stroke:#000000;stroke-width:1;" x1="1386.3975" x2="1386.3975" y1="307.7969" y2="328.0938"/><rect fill="none" height="81.1875" rx="5" ry="5" style="stroke:#000000;stroke-width:1.5;" width="186.1475" x="1317" y="246.9063"/><rect fill="#F1F1F1" height="40.5938" rx="5" ry="5" style="stroke:#F1F1F1;stroke-width:1.5;" width="512.96" x="673" y="317"/><text fill="#000000" font-family="sans-serif" font-size="14" font-weight="bold" lengthAdjust="spacing" textLength="43.4971" x="678" y="331.9951">name</text><text fill="#000000" font-family="sans-serif" font-size="14" lengthAdjust="spacing" textLength="423.9512" x="757.0088" y="331.9951">Append Ansible hostname to /var/www/2048/app/index.html</text><line style="stroke:#000000;stroke-width:1;" x1="752.0088" x2="752.0088" y1="317" y2="337.2969"/><line style="stroke:#000000;stroke-width:1;" x1="673" x2="1185.96" y1="337.2969" y2="337.2969"/><text fill="#000000" font-family="sans-serif" font-size="14" font-weight="bold" lengthAdjust="spacing" textLength="69.0088" x="678" y="352.292">lineinfile</text><text fill="#000000" font-family="sans-serif" font-size="14" lengthAdjust="spacing" textLength="13.3506" x="757.0088" y="352.292">&#160;&#160;&#160;</text><line style="stroke:#000000;stroke-width:1;" x1="752.0088" x2="752.0088" y1="337.2969" y2="357.5938"/><rect fill="none" height="40.5938" rx="5" ry="5" style="stroke:#000000;stroke-width:1.5;" width="512.96" x="673" y="317"/><rect fill="#F1F1F1" height="81.1875" rx="5" ry="5" style="stroke:#F1F1F1;stroke-width:1.5;" width="373.6504" x="1223" y="345.9063"/><text fill="#000000" font-family="sans-serif" font-size="14" font-weight="bold" lengthAdjust="spacing" textLength="36.1279" x="1228" y="360.9014">path</text><text fill="#000000" font-family="sans-serif" font-size="14" lengthAdjust="spacing" textLength="217.4238" x="1322.8203" y="360.9014">/var/www/2048/app/index.html</text><line style="stroke:#000000;stroke-width:1;" x1="1317.8203" x2="1317.8203" y1="345.9063" y2="366.2031"/><line style="stroke:#000000;stroke-width:1;" x1="1223" x2="1596.6504" y1="366.2031" y2="366.2031"/><text fill="#000000" font-family="sans-serif" font-size="14" font-weight="bold" lengthAdjust="spacing" textLength="29.0596" x="1228" y="381.1982">line</text><text fill="#000000" font-family="sans-serif" font-size="14" lengthAdjust="spacing" textLength="268.8301" x="1322.8203" y="381.1982">Hostname: {{ inventory_hostname }}</text><line style="stroke:#000000;stroke-width:1;" x1="1317.8203" x2="1317.8203" y1="366.2031" y2="386.5"/><line style="stroke:#000000;stroke-width:1;" x1="1223" x2="1596.6504" y1="386.5" y2="386.5"/><text fill="#000000" font-family="sans-serif" font-size="14" font-weight="bold" lengthAdjust="spacing" textLength="50.333" x="1228" y="401.4951">create</text><text fill="#000000" font-family="sans-serif" font-size="14" lengthAdjust="spacing" textLength="24.1924" x="1322.8203" y="401.4951">yes</text><line style="stroke:#000000;stroke-width:1;" x1="1317.8203" x2="1317.8203" y1="386.5" y2="406.7969"/><line style="stroke:#000000;stroke-width:1;" x1="1223" x2="1596.6504" y1="406.7969" y2="406.7969"/><text fill="#000000" font-family="sans-serif" font-size="14" font-weight="bold" lengthAdjust="spacing" textLength="84.8203" x="1228" y="421.792">insertafter</text><text fill="#000000" font-family="sans-serif" font-size="14" lengthAdjust="spacing" textLength="28.6768" x="1322.8203" y="421.792">BOF</text><line style="stroke:#000000;stroke-width:1;" x1="1317.8203" x2="1317.8203" y1="406.7969" y2="427.0938"/><rect fill="none" height="81.1875" rx="5" ry="5" style="stroke:#000000;stroke-width:1.5;" width="373.6504" x="1223" y="345.9063"/><rect fill="#F1F1F1" height="60.8906" rx="5" ry="5" style="stroke:#F1F1F1;stroke-width:1.5;" width="319.6191" x="769.5" y="377"/><text fill="#000000" font-family="sans-serif" font-size="14" font-weight="bold" lengthAdjust="spacing" textLength="43.4971" x="774.5" y="391.9951">name</text><text fill="#000000" font-family="sans-serif" font-size="14" lengthAdjust="spacing" textLength="253.3262" x="830.793" y="391.9951">Remove default Nginx configuration</text><line style="stroke:#000000;stroke-width:1;" x1="825.793" x2="825.793" y1="377" y2="397.2969"/><line style="stroke:#000000;stroke-width:1;" x1="769.5" x2="1089.1191" y1="397.2969" y2="397.2969"/><text fill="#000000" font-family="sans-serif" font-size="14" font-weight="bold" lengthAdjust="spacing" textLength="25.1836" x="774.5" y="412.292">file</text><text fill="#000000" font-family="sans-serif" font-size="14" lengthAdjust="spacing" textLength="13.3506" x="830.793" y="412.292">&#160;&#160;&#160;</text><line style="stroke:#000000;stroke-width:1;" x1="825.793" x2="825.793" y1="397.2969" y2="417.5938"/><line style="stroke:#000000;stroke-width:1;" x1="769.5" x2="1089.1191" y1="417.5938" y2="417.5938"/><text fill="#000000" font-family="sans-serif" font-size="14" font-weight="bold" lengthAdjust="spacing" textLength="46.293" x="774.5" y="432.5889">notify</text><text fill="#000000" font-family="sans-serif" font-size="14" lengthAdjust="spacing" textLength="90.2344" x="830.793" y="432.5889">restart nginx</text><line style="stroke:#000000;stroke-width:1;" x1="825.793" x2="825.793" y1="417.5938" y2="437.8906"/><rect fill="none" height="60.8906" rx="5" ry="5" style="stroke:#000000;stroke-width:1.5;" width="319.6191" x="769.5" y="377"/><rect fill="#F1F1F1" height="40.5938" rx="5" ry="5" style="stroke:#F1F1F1;stroke-width:1.5;" width="283.3682" x="1268.5" y="445"/><text fill="#000000" font-family="sans-serif" font-size="14" font-weight="bold" lengthAdjust="spacing" textLength="36.1279" x="1273.5" y="459.9951">path</text><text fill="#000000" font-family="sans-serif" font-size="14" lengthAdjust="spacing" textLength="222.708" x="1324.1602" y="459.9951">/etc/nginx/sites-enabled/default</text><line style="stroke:#000000;stroke-width:1;" x1="1319.1602" x2="1319.1602" y1="445" y2="465.2969"/><line style="stroke:#000000;stroke-width:1;" x1="1268.5" x2="1551.8682" y1="465.2969" y2="465.2969"/><text fill="#000000" font-family="sans-serif" font-size="14" font-weight="bold" lengthAdjust="spacing" textLength="40.6602" x="1273.5" y="480.292">state</text><text fill="#000000" font-family="sans-serif" font-size="14" lengthAdjust="spacing" textLength="47.7354" x="1324.1602" y="480.292">absent</text><line style="stroke:#000000;stroke-width:1;" x1="1319.1602" x2="1319.1602" y1="465.2969" y2="485.5938"/><rect fill="none" height="40.5938" rx="5" ry="5" style="stroke:#000000;stroke-width:1.5;" width="283.3682" x="1268.5" y="445"/><rect fill="#F1F1F1" height="20.2969" rx="5" ry="5" style="stroke:#F1F1F1;stroke-width:1.5;" width="23.3506" x="505" y="408.3516"/><text fill="#000000" font-family="sans-serif" font-size="14" lengthAdjust="spacing" textLength="13.3506" x="510" y="423.3467">&#160;&#160;&#160;</text><rect fill="none" height="20.2969" rx="5" ry="5" style="stroke:#000000;stroke-width:1.5;" width="23.3506" x="505" y="408.3516"/><rect fill="#F1F1F1" height="40.5938" rx="5" ry="5" style="stroke:#F1F1F1;stroke-width:1.5;" width="166.6855" x="846" y="459"/><text fill="#000000" font-family="sans-serif" font-size="14" font-weight="bold" lengthAdjust="spacing" textLength="43.4971" x="851" y="473.9951">name</text><text fill="#000000" font-family="sans-serif" font-size="14" lengthAdjust="spacing" textLength="90.2344" x="917.4512" y="473.9951">restart nginx</text><line style="stroke:#000000;stroke-width:1;" x1="912.4512" x2="912.4512" y1="459" y2="479.2969"/><line style="stroke:#000000;stroke-width:1;" x1="846" x2="1012.6855" y1="479.2969" y2="479.2969"/><text fill="#000000" font-family="sans-serif" font-size="14" font-weight="bold" lengthAdjust="spacing" textLength="56.4512" x="851" y="494.292">service</text><text fill="#000000" font-family="sans-serif" font-size="14" lengthAdjust="spacing" textLength="13.3506" x="917.4512" y="494.292">&#160;&#160;&#160;</text><line style="stroke:#000000;stroke-width:1;" x1="912.4512" x2="912.4512" y1="479.2969" y2="499.5938"/><rect fill="none" height="40.5938" rx="5" ry="5" style="stroke:#000000;stroke-width:1.5;" width="166.6855" x="846" y="459"/><rect fill="#F1F1F1" height="40.5938" rx="5" ry="5" style="stroke:#F1F1F1;stroke-width:1.5;" width="127.9736" x="1346" y="504"/><text fill="#000000" font-family="sans-serif" font-size="14" font-weight="bold" lengthAdjust="spacing" textLength="43.4971" x="1351" y="518.9951">name</text><text fill="#000000" font-family="sans-serif" font-size="14" lengthAdjust="spacing" textLength="38.8076" x="1404.4971" y="518.9951">nginx</text><line style="stroke:#000000;stroke-width:1;" x1="1399.4971" x2="1399.4971" y1="504" y2="524.2969"/><line style="stroke:#000000;stroke-width:1;" x1="1346" x2="1473.9736" y1="524.2969" y2="524.2969"/><text fill="#000000" font-family="sans-serif" font-size="14" font-weight="bold" lengthAdjust="spacing" textLength="40.6602" x="1351" y="539.292">state</text><text fill="#000000" font-family="sans-serif" font-size="14" lengthAdjust="spacing" textLength="64.4766" x="1404.4971" y="539.292">restarted</text><line style="stroke:#000000;stroke-width:1;" x1="1399.4971" x2="1399.4971" y1="524.2969" y2="544.5938"/><rect fill="none" height="40.5938" rx="5" ry="5" style="stroke:#000000;stroke-width:1.5;" width="127.9736" x="1346" y="504"/><rect fill="#F1F1F1" height="101.4844" rx="5" ry="5" style="stroke:#F1F1F1;stroke-width:1.5;" width="290.4775" x="70" y="462.7578"/><text fill="#000000" font-family="sans-serif" font-size="14" font-weight="bold" lengthAdjust="spacing" textLength="43.4971" x="75" y="477.7529">name</text><text fill="#000000" font-family="sans-serif" font-size="14" lengthAdjust="spacing" textLength="208.9609" x="146.5166" y="477.7529">Setup HAProxy Load Balancer</text><line style="stroke:#000000;stroke-width:1;" x1="141.5166" x2="141.5166" y1="462.7578" y2="483.0547"/><line style="stroke:#000000;stroke-width:1;" x1="70" x2="360.4775" y1="483.0547" y2="483.0547"/><text fill="#000000" font-family="sans-serif" font-size="14" font-weight="bold" lengthAdjust="spacing" textLength="42.9434" x="75" y="498.0498">hosts</text><text fill="#000000" font-family="sans-serif" font-size="14" lengthAdjust="spacing" textLength="90.7949" x="146.5166" y="498.0498">loadbalancer</text><line style="stroke:#000000;stroke-width:1;" x1="141.5166" x2="141.5166" y1="483.0547" y2="503.3516"/><line style="stroke:#000000;stroke-width:1;" x1="70" x2="360.4775" y1="503.3516" y2="503.3516"/><text fill="#000000" font-family="sans-serif" font-size="14" font-weight="bold" lengthAdjust="spacing" textLength="61.5166" x="75" y="518.3467">become</text><text fill="#000000" font-family="sans-serif" font-size="14" lengthAdjust="spacing" textLength="24.1924" x="146.5166" y="518.3467">yes</text><line style="stroke:#000000;stroke-width:1;" x1="141.5166" x2="141.5166" y1="503.3516" y2="523.6484"/><line style="stroke:#000000;stroke-width:1;" x1="70" x2="360.4775" y1="523.6484" y2="523.6484"/><text fill="#000000" font-family="sans-serif" font-size="14" font-weight="bold" lengthAdjust="spacing" textLength="39.1494" x="75" y="538.6436">roles</text><text fill="#000000" font-family="sans-serif" font-size="14" lengthAdjust="spacing" textLength="13.3506" x="146.5166" y="538.6436">&#160;&#160;&#160;</text><line style="stroke:#000000;stroke-width:1;" x1="141.5166" x2="141.5166" y1="523.6484" y2="543.9453"/><line style="stroke:#000000;stroke-width:1;" x1="70" x2="360.4775" y1="543.9453" y2="543.9453"/><text fill="#000000" font-family="sans-serif" font-size="14" font-weight="bold" lengthAdjust="spacing" textLength="33.8105" x="75" y="558.9404">vars</text><text fill="#000000" font-family="sans-serif" font-size="14" lengthAdjust="spacing" textLength="13.3506" x="146.5166" y="558.9404">&#160;&#160;&#160;</text><line style="stroke:#000000;stroke-width:1;" x1="141.5166" x2="141.5166" y1="543.9453" y2="564.2422"/><rect fill="none" height="101.4844" rx="5" ry="5" style="stroke:#000000;stroke-width:1.5;" width="290.4775" x="70" y="462.7578"/><rect fill="#F1F1F1" height="20.2969" rx="5" ry="5" style="stroke:#F1F1F1;stroke-width:1.5;" width="23.3506" x="505" y="523.3516"/><text fill="#000000" font-family="sans-serif" font-size="14" lengthAdjust="spacing" textLength="13.3506" x="510" y="538.3467">&#160;&#160;&#160;</text><rect fill="none" height="20.2969" rx="5" ry="5" style="stroke:#000000;stroke-width:1.5;" width="23.3506" x="505" y="523.3516"/><rect fill="#F1F1F1" height="20.2969" rx="5" ry="5" style="stroke:#F1F1F1;stroke-width:1.5;" width="195.9502" x="831.5" y="523.3516"/><text fill="#000000" font-family="sans-serif" font-size="14" font-weight="bold" lengthAdjust="spacing" textLength="30.8164" x="836.5" y="538.3467">role</text><text fill="#000000" font-family="sans-serif" font-size="14" lengthAdjust="spacing" textLength="145.1338" x="877.3164" y="538.3467">geerlingguy.haproxy</text><line style="stroke:#000000;stroke-width:1;" x1="872.3164" x2="872.3164" y1="523.3516" y2="543.6484"/><rect fill="none" height="20.2969" rx="5" ry="5" style="stroke:#000000;stroke-width:1.5;" width="195.9502" x="831.5" y="523.3516"/><rect fill="#F1F1F1" height="40.5938" rx="5" ry="5" style="stroke:#F1F1F1;stroke-width:1.5;" width="238.9756" x="397" y="562"/><text fill="#000000" font-family="sans-serif" font-size="14" font-weight="bold" lengthAdjust="spacing" textLength="205.625" x="402" y="576.9951">haproxy_backend_httpchk</text><text fill="#000000" font-family="sans-serif" font-size="14" lengthAdjust="spacing" textLength="4.4502" x="617.625" y="576.9951">&#160;</text><line style="stroke:#000000;stroke-width:1;" x1="612.625" x2="612.625" y1="562" y2="582.2969"/><line style="stroke:#000000;stroke-width:1;" x1="397" x2="635.9756" y1="582.2969" y2="582.2969"/><text fill="#000000" font-family="sans-serif" font-size="14" font-weight="bold" lengthAdjust="spacing" textLength="203.2666" x="402" y="597.292">haproxy_backend_servers</text><text fill="#000000" font-family="sans-serif" font-size="14" lengthAdjust="spacing" textLength="13.3506" x="617.625" y="597.292">&#160;&#160;&#160;</text><line style="stroke:#000000;stroke-width:1;" x1="612.625" x2="612.625" y1="582.2969" y2="602.5938"/><rect fill="none" height="40.5938" rx="5" ry="5" style="stroke:#000000;stroke-width:1.5;" width="238.9756" x="397" y="562"/><rect fill="#F1F1F1" height="40.5938" rx="5" ry="5" style="stroke:#F1F1F1;stroke-width:1.5;" width="23.3506" x="918" y="573"/><text fill="#000000" font-family="sans-serif" font-size="14" lengthAdjust="spacing" textLength="13.3506" x="923" y="587.9951">&#160;&#160;&#160;</text><line style="stroke:#000000;stroke-width:1;" x1="918" x2="941.3506" y1="593.2969" y2="593.2969"/><text fill="#000000" font-family="sans-serif" font-size="14" lengthAdjust="spacing" textLength="13.3506" x="923" y="608.292">&#160;&#160;&#160;</text><rect fill="none" height="40.5938" rx="5" ry="5" style="stroke:#000000;stroke-width:1.5;" width="23.3506" x="918" y="573"/><rect fill="#F1F1F1" height="40.5938" rx="5" ry="5" style="stroke:#F1F1F1;stroke-width:1.5;" width="372.0986" x="1224" y="563"/><text fill="#000000" font-family="sans-serif" font-size="14" font-weight="bold" lengthAdjust="spacing" textLength="43.4971" x="1229" y="577.9951">name</text><text fill="#000000" font-family="sans-serif" font-size="14" lengthAdjust="spacing" textLength="37.8574" x="1301.5557" y="577.9951">web1</text><line style="stroke:#000000;stroke-width:1;" x1="1296.5557" x2="1296.5557" y1="563" y2="583.2969"/><line style="stroke:#000000;stroke-width:1;" x1="1224" x2="1596.0986" y1="583.2969" y2="583.2969"/><text fill="#000000" font-family="sans-serif" font-size="14" font-weight="bold" lengthAdjust="spacing" textLength="62.5557" x="1229" y="598.292">address</text><text fill="#000000" font-family="sans-serif" font-size="14" lengthAdjust="spacing" textLength="289.543" x="1301.5557" y="598.292">{{ hostvars['web1']['ansible_host'] }}:80</text><line style="stroke:#000000;stroke-width:1;" x1="1296.5557" x2="1296.5557" y1="583.2969" y2="603.5938"/><rect fill="none" height="40.5938" rx="5" ry="5" style="stroke:#000000;stroke-width:1.5;" width="372.0986" x="1224" y="563"/><rect fill="#F1F1F1" height="40.5938" rx="5" ry="5" style="stroke:#F1F1F1;stroke-width:1.5;" width="372.0986" x="1224" y="622"/><text fill="#000000" font-family="sans-serif" font-size="14" font-weight="bold" lengthAdjust="spacing" textLength="43.4971" x="1229" y="636.9951">name</text><text fill="#000000" font-family="sans-serif" font-size="14" lengthAdjust="spacing" textLength="37.8574" x="1301.5557" y="636.9951">web2</text><line style="stroke:#000000;stroke-width:1;" x1="1296.5557" x2="1296.5557" y1="622" y2="642.2969"/><line style="stroke:#000000;stroke-width:1;" x1="1224" x2="1596.0986" y1="642.2969" y2="642.2969"/><text fill="#000000" font-family="sans-serif" font-size="14" font-weight="bold" lengthAdjust="spacing" textLength="62.5557" x="1229" y="657.292">address</text><text fill="#000000" font-family="sans-serif" font-size="14" lengthAdjust="spacing" textLength="289.543" x="1301.5557" y="657.292">{{ hostvars['web2']['ansible_host'] }}:80</text><line style="stroke:#000000;stroke-width:1;" x1="1296.5557" x2="1296.5557" y1="642.2969" y2="662.5938"/><rect fill="none" height="40.5938" rx="5" ry="5" style="stroke:#000000;stroke-width:1.5;" width="372.0986" x="1224" y="622"/><path d="M515.9045,94.5585 L528.886,93.8653 C572.9068,91.5147 729.4675,83.1546 833.1985,77.6156" fill="none" style="stroke:#000000;stroke-width:1;stroke-dasharray:3.0,3.0;"/><path d="M833.3626,80.6899 L835.5042,77.4925 L833.0343,74.5413 L840.8842,77.2052 L833.3626,80.6899" fill="#000000"/><ellipse cx="515.9045" cy="94.5585" fill="#000000" rx="3" ry="3" style="stroke:#000000;stroke-width:1;"/><path d="M339.5,236.5 L352.5,236.5 C392.7983,236.5 368.1355,185.621 397,157.5 C426.764,128.5026 472.5706,109.3993 497.7892,100.431" fill="none" style="stroke:#000000;stroke-width:1;stroke-dasharray:3.0,3.0;"/><path d="M498.8114,103.3982 L500.0146,99.6644 L496.7671,97.4638 L505.2073,97.8757 L498.8114,103.3982" fill="#000000"/><ellipse cx="339.5" cy="236.5" fill="#000000" rx="3" ry="3" style="stroke:#000000;stroke-width:1;"/><path d="M928.6654,110.5588 L941.665,110.6588 C978.2395,110.94 1093.7812,110.1804 1187,91.5 C1203.5367,88.1862 1206.7186,83.9001 1223,79.5 C1239.1307,75.1406 1256.1569,70.9832 1273.0972,67.1177" fill="none" style="stroke:#000000;stroke-width:1;stroke-dasharray:3.0,3.0;"/><path d="M1273.7993,70.2272 L1275.4293,66.5912 L1272.3951,64.0082 L1280.871,65.3625 L1273.7993,70.2272" fill="#000000"/><ellipse cx="928.6654" cy="110.5588" fill="#000000" rx="3" ry="3" style="stroke:#000000;stroke-width:1;"/><path d="M572,176.5 L585,176.5 C629.3399,176.5 630.4154,141.8522 673,129.5 C759.2736,104.4753 868.3925,107.0786 910.8988,109.3173" fill="none" style="stroke:#000000;stroke-width:1;stroke-dasharray:3.0,3.0;"/><path d="M910.725,112.352 L913.1748,109.4477 L911.0727,106.2827 L918.4854,109.7519 L910.725,112.352" fill="#000000"/><ellipse cx="572" cy="176.5" fill="#000000" rx="3" ry="3" style="stroke:#000000;stroke-width:1;"/><path d="M339.5,256.5 L352.5,256.5 C378.7984,256.5 374.2528,230.6973 397,217.5 C418.4813,205.0372 444.3435,195.5593 466.4629,188.8723" fill="none" style="stroke:#000000;stroke-width:1;stroke-dasharray:3.0,3.0;"/><path d="M467.3274,191.8108 L468.6668,188.224 L465.5985,185.9339 L473.8091,186.7113 L467.3274,191.8108" fill="#000000"/><ellipse cx="339.5" cy="256.5" fill="#000000" rx="3" ry="3" style="stroke:#000000;stroke-width:1;"/><path d="M982,169.5 L995,169.5 C1012.2588,169.5 1231.9668,136.4888 1344.2967,119.4382" fill="none" style="stroke:#000000;stroke-width:1;stroke-dasharray:3.0,3.0;"/><path d="M1344.7565,122.4659 L1346.5675,119.0934 L1343.837,116.4105 L1351.8659,118.2888 L1344.7565,122.4659" fill="#000000"/><ellipse cx="982" cy="169.5" fill="#000000" rx="3" ry="3" style="stroke:#000000;stroke-width:1;"/><path d="M517,236.5 L530,236.5 C597.0404,236.5 607.551,203.0205 673,188.5 C734.4936,174.857 805.7993,167.4484 857.5136,163.5436" fill="none" style="stroke:#000000;stroke-width:1;stroke-dasharray:3.0,3.0;"/><path d="M857.734,166.5373 L859.7589,163.3782 L857.2932,160.5498 L864.998,162.9925 L857.734,166.5373" fill="#000000"/><ellipse cx="517" cy="236.5" fill="#000000" rx="3" ry="3" style="stroke:#000000;stroke-width:1;"/><path d="M1062,228.5 L1075,228.5 C1124.7896,228.5 1178.455,224.0767 1227.9125,218.172" fill="none" style="stroke:#000000;stroke-width:1;stroke-dasharray:3.0,3.0;"/><path d="M1228.2808,221.2049 L1230.1872,217.8958 L1227.5443,215.1391 L1235.4948,217.2513 L1228.2808,221.2049" fill="#000000"/><ellipse cx="1062" cy="228.5" fill="#000000" rx="3" ry="3" style="stroke:#000000;stroke-width:1;"/><path d="M517,257.5 L530,257.5 C576.9653,257.5 685.2993,246.6615 777.2461,236.412" fill="none" style="stroke:#000000;stroke-width:1;stroke-dasharray:3.0,3.0;"/><path d="M777.5912,239.4976 L779.5603,236.1532 L776.901,233.3264 L784.9601,235.5492 L777.5912,239.4976" fill="#000000"/><ellipse cx="517" cy="257.5" fill="#000000" rx="3" ry="3" style="stroke:#000000;stroke-width:1;"/><path d="M1126,287.5 L1139,287.5 C1195.506,287.5 1258.6516,287.5 1309.7125,287.5" fill="none" style="stroke:#000000;stroke-width:1;stroke-dasharray:3.0,3.0;"/><path d="M1309.7125,290.6062 L1312.0422,287.5 L1309.7125,284.3938 L1317.4781,287.5 L1309.7125,290.6062" fill="#000000"/><ellipse cx="1126" cy="287.5" fill="#000000" rx="3" ry="3" style="stroke:#000000;stroke-width:1;"/><path d="M517,277.5 L530,277.5 C589.4545,277.5 653.8924,277.5 713.289,277.5" fill="none" style="stroke:#000000;stroke-width:1;stroke-dasharray:3.0,3.0;"/><path d="M713.289,280.5371 L715.5668,277.5 L713.289,274.4629 L720.8817,277.5 L713.289,280.5371" fill="#000000"/><ellipse cx="517" cy="277.5" fill="#000000" rx="3" ry="3" style="stroke:#000000;stroke-width:1;"/><path d="M1174,347.5 L1187,347.5 C1196.3609,347.5 1205.9104,347.839 1215.5321,348.4539" fill="none" style="stroke:#000000;stroke-width:1;stroke-dasharray:3.0,3.0;"/><path d="M1215.3117,351.5458 L1217.851,348.6192 L1215.7525,345.3621 L1223.2618,349.0049 L1215.3117,351.5458" fill="#000000"/><ellipse cx="1174" cy="347.5" fill="#000000" rx="3" ry="3" style="stroke:#000000;stroke-width:1;"/><path d="M517,297.5 L530,297.5 C572.49,297.5 665.1754,306.5943 750.5274,316.1102" fill="none" style="stroke:#000000;stroke-width:1;stroke-dasharray:3.0,3.0;"/><path d="M750.1824,319.1928 L752.8393,316.369 L750.8724,313.0276 L758.2338,316.9727 L750.1824,319.1928" fill="#000000"/><ellipse cx="517" cy="297.5" fill="#000000" rx="3" ry="3" style="stroke:#000000;stroke-width:1;"/><path d="M1078,407.5 L1091,407.5 C1151.0658,407.5 1163.962,425.4357 1223,436.5 C1236.1797,438.97 1249.9113,441.3914 1263.6816,443.7165" fill="none" style="stroke:#000000;stroke-width:1;stroke-dasharray:3.0,3.0;"/><path d="M1263.169,446.7769 L1265.9769,444.101 L1264.1942,440.6561 L1271.3325,444.998 L1263.169,446.7769" fill="#000000"/><ellipse cx="1078" cy="407.5" fill="#000000" rx="3" ry="3" style="stroke:#000000;stroke-width:1;"/><path d="M517,318.5 L530,318.5 C597.0404,318.5 607.9023,350.4779 673,366.5 C701.6073,373.5409 732.3209,379.6617 762.1939,384.8724" fill="none" style="stroke:#000000;stroke-width:1;stroke-dasharray:3.0,3.0;"/><path d="M761.6718,387.9024 L764.4663,385.264 L762.7159,381.8425 L769.7687,386.1776 L761.6718,387.9024" fill="#000000"/><ellipse cx="517" cy="318.5" fill="#000000" rx="3" ry="3" style="stroke:#000000;stroke-width:1;"/><path d="M339.5,277.5 L352.5,277.5 C405.1705,277.5 467.3851,277.5 497.6369,277.5" fill="none" style="stroke:#000000;stroke-width:1;stroke-dasharray:3.0,3.0;"/><path d="M497.6369,280.5602 L499.932,277.5 L497.6369,274.4398 L505.2874,277.5 L497.6369,280.5602" fill="#000000"/><ellipse cx="339.5" cy="277.5" fill="#000000" rx="3" ry="3" style="stroke:#000000;stroke-width:1;"/><path d="M1001,489.5 L1014,489.5 C1128.0225,489.5 1259.8185,504.1128 1338.814,514.4543" fill="none" style="stroke:#000000;stroke-width:1;stroke-dasharray:3.0,3.0;"/><path d="M1338.4193,517.4453 L1341.0572,514.7503 L1339.2087,511.4633 L1346.2915,515.4411 L1338.4193,517.4453" fill="#000000"/><ellipse cx="1001" cy="489.5" fill="#000000" rx="3" ry="3" style="stroke:#000000;stroke-width:1;"/><path d="M515.9495,418.3152 L528.7086,420.8059 C554.6354,425.8669 618.8817,438.1603 673,446.5 C727.9755,454.9718 789.8251,462.9864 838.9576,468.9956" fill="none" style="stroke:#000000;stroke-width:1;stroke-dasharray:3.0,3.0;"/><path d="M838.5938,471.9809 L841.1966,469.2684 L839.3213,466.0102 L846.421,469.9049 L838.5938,471.9809" fill="#000000"/><ellipse cx="515.9495" cy="418.3152" fill="#000000" rx="3" ry="3" style="stroke:#000000;stroke-width:1;"/><path d="M339.5,297.5 L352.5,297.5 C379.0934,297.5 376.0718,321.0921 397,337.5 C431.7563,364.7493 475.234,392.9763 498.8299,407.8462" fill="none" style="stroke:#000000;stroke-width:1;stroke-dasharray:3.0,3.0;"/><path d="M497.1619,410.5074 L500.8258,409.0972 L500.4979,405.185 L505.4828,412.0163 L497.1619,410.5074" fill="#000000"/><ellipse cx="339.5" cy="297.5" fill="#000000" rx="3" ry="3" style="stroke:#000000;stroke-width:1;"/><path d="M21,364.5 L34,364.5 C76.8561,364.5 116.6374,340.1936 147.8856,312.7647" fill="none" style="stroke:#000000;stroke-width:1;stroke-dasharray:3.0,3.0;"/><path d="M149.9467,315.0584 L149.6058,311.2189 L145.8245,310.471 L153.6198,307.6119 L149.9467,315.0584" fill="#000000"/><ellipse cx="21" cy="364.5" fill="#000000" rx="3" ry="3" style="stroke:#000000;stroke-width:1;"/><path d="M515.886,533.5 L528.886,533.5 C571.6197,533.5 720.4082,533.5 823.9679,533.5" fill="none" style="stroke:#000000;stroke-width:1;stroke-dasharray:3.0,3.0;"/><path d="M823.9679,536.575 L826.2741,533.5 L823.9679,530.425 L831.6553,533.5 L823.9679,536.575" fill="#000000"/><ellipse cx="515.886" cy="533.5" fill="#000000" rx="3" ry="3" style="stroke:#000000;stroke-width:1;"/><path d="M347.5,533.5 L360.5,533.5 C410.1335,533.5 468.6784,533.5 497.7355,533.5" fill="none" style="stroke:#000000;stroke-width:1;stroke-dasharray:3.0,3.0;"/><path d="M497.7355,536.5824 L500.0473,533.5 L497.7355,530.4176 L505.4414,533.5 L497.7355,536.5824" fill="#000000"/><ellipse cx="347.5" cy="533.5" fill="#000000" rx="3" ry="3" style="stroke:#000000;stroke-width:1;"/><path d="M930,583.5 L943,583.5 C1033.0163,583.5 1132.803,583.5 1216.9084,583.5" fill="none" style="stroke:#000000;stroke-width:1;stroke-dasharray:3.0,3.0;"/><path d="M1216.9084,586.5287 L1219.1799,583.5 L1216.9084,580.4713 L1224.4801,583.5 L1216.9084,586.5287" fill="#000000"/><ellipse cx="930" cy="583.5" fill="#000000" rx="3" ry="3" style="stroke:#000000;stroke-width:1;"/><path d="M930,603.5 L943,603.5 C1040.5285,603.5 1149.1288,612.0697 1236.9904,621.1748" fill="none" style="stroke:#000000;stroke-width:1;stroke-dasharray:3.0,3.0;"/><path d="M1236.6715,624.2263 L1239.279,621.414 L1237.3093,618.1233 L1244.6191,621.9721 L1236.6715,624.2263" fill="#000000"/><ellipse cx="930" cy="603.5" fill="#000000" rx="3" ry="3" style="stroke:#000000;stroke-width:1;"/><path d="M624,592.5 L637,592.5 C740.5618,592.5 864.7829,593.1368 910.7447,593.3941" fill="none" style="stroke:#000000;stroke-width:1;stroke-dasharray:3.0,3.0;"/><path d="M910.7274,596.4536 L913.0394,593.4071 L910.7621,590.3346 L918.3935,593.4374 L910.7274,596.4536" fill="#000000"/><ellipse cx="624" cy="592.5" fill="#000000" rx="3" ry="3" style="stroke:#000000;stroke-width:1;"/><path d="M347.5,554.5 L360.5,554.5 C381.725,554.5 404.3254,557.058 425.5307,560.6277" fill="none" style="stroke:#000000;stroke-width:1;stroke-dasharray:3.0,3.0;"/><path d="M425.0098,563.6028 L427.7621,561.0184 L426.0516,557.6525 L432.9686,561.93 L425.0098,563.6028" fill="#000000"/><ellipse cx="347.5" cy="554.5" fill="#000000" rx="3" ry="3" style="stroke:#000000;stroke-width:1;"/><path d="M21,384.5 L34,384.5 C87.3793,384.5 135.8623,422.3049 169.1067,456.9832" fill="none" style="stroke:#000000;stroke-width:1;stroke-dasharray:3.0,3.0;"/><path d="M166.8937,459.0645 L170.6677,458.643 L171.3198,454.902 L174.3099,462.5158 L166.8937,459.0645" fill="#000000"/><ellipse cx="21" cy="384.5" fill="#000000" rx="3" ry="3" style="stroke:#000000;stroke-width:1;"/><!--SRC=[ZLNRRjD047ttLupCG-0XSHieL7wYDrfAMwf20GcXQ6rFx5NjNMjtd3Ig-23uZVuOixPZ9w65ldddSkPsPlpMaZ2q44Nk3K690aFuX5ILS77y_k8RVCM8tsQ6nde0cRPaGvXZn8y8O-tC5sWzVXgTemtv0s1OFq984KqkLPfMYv5AfRfrTZDXMhDQD9areArZBYsX2i7VtV9h4O2jmq-QtFp9Kcoq9du7Z1VCv_DWlFLgDn1bwRiW9EnDXzbulbTSQPx3iQGMGPGKjf_G6gMTakEI81QL1YqgyjR03dAj42X3S64XPI4OBBMLfCsYXM2m7jzfETsCgBHX4B0kgw8HTp0WcbEc2s7h4aQiyJkl1ErVHVPQDnMfkLidHtk7dNIgJToFfS_vIDdAh2ITI8EnInSoOI7MnZsXH5D8ws1jYpYLFCiElHIKFPvHeHEEDDXwixCps6na5s-b9t5bBAl8LBYUx5vPeafWJraPvLWJpoc0DFmryK2g16z76J676s0c7KhrKE9FS6xSkSQJDcW8TtSWrOnPmDbFkbn-_kmBZmtMHRgkBsLICNL9J0bD2FiVtwrNU8M5dY5FU2ggdE32BGDFWRDEAoE81_2F_WT8SL3lJy2KGpj49RXFIT32RVPUH3M7MwfhajD5oEslTx_PGtW6VYkOr0AV5w_AiM0_i19omKiLCtTun78gxty14bIy1BKLaqvQAEv_SrlOE1c8YXYjSR6WLHlKjI0JAidHRApdMZ8hcozZt5pILPEkmjOV4y_RE6GdUvT6toxWJ8i4zaKkL8ocFsOvYwDUkdhL_dlKCb4wwBMhriecaOXlcC8Jj_5nTiDyyX_KD-VDBejSviutThkhKIG9ryV9-in4bxSBzttWR0O_lWz4ioKrCmS_c9TXVprNyCPFm1i_ZlUMiwt_4zubTukkpy-M1mYsH-EjySxePOGajhUVNwiRfUUAsLoKJ5uWMU0Bx_dnvHbONV5rubjWoSYeSZH_uPsAcO2hIZcx43xovfyUVbWA-6xDfD7A4T4x_NBU6xn-DToNrFwUuCkvTzZkqf6AcQGg3U7wyxlXhdScL5g9bB5HUGUQSGtJ__hJ7m00]--></g></svg>